<svg width="13" height="12" fill="none" xmlns="http://www.w3.org/2000/svg"><path d="M3.073 5.188c1 1.937 2.469 3.406 4.406 4.406l1.469-1.469c.208-.208.437-.26.687-.156a7.46 7.46 0 0 0 2.375.375c.188 0 .344.062.47.187a.636.636 0 0 1 .187.469v2.344a.636.636 0 0 1-.188.469.636.636 0 0 1-.469.187c-3.125 0-5.802-1.104-8.03-3.313C1.77 6.458.666 3.782.666.658c0-.188.062-.345.187-.47A.636.636 0 0 1 1.323 0h2.344c.187 0 .343.063.468.188a.636.636 0 0 1 .188.468c0 .834.125 1.625.375 2.375.083.271.031.5-.156.688l-1.47 1.469Z" fill="#797979"/></svg>