<svg width="25" height="22" fill="none" xmlns="http://www.w3.org/2000/svg"><path id="Vector" d="M24.396 8.252c-.25-.726-.91-1.251-1.71-1.366l-5.677-.783-2.62-4.976C14.03.43 13.31 0 12.5 0c-.809 0-1.529.43-1.888 1.127L8.07 6.046l-.08.057-5.678.783c-.8.115-1.46.64-1.71 1.366-.25.735-.04 1.528.54 2.072l4.11 3.82.03.096-.97 5.406c-.14.755.18 1.51.84 1.968.65.448 1.499.515 2.219.152l5.078-2.55 5.178 2.55c.31.153.65.23.98.23 1.308 0 2.307-1.121 2.08-2.35l-.97-5.406 4.139-3.915c.58-.545.79-1.338.54-2.073Z" fill="#4E2251"/></svg>